<?xml version="1.0" standalone="no"?>
<!DOCTYPE svg PUBLIC "-//W3C//DTD SVG 20010904//EN"
 "http://www.w3.org/TR/2001/REC-SVG-20010904/DTD/svg10.dtd">
<svg version="1.0" xmlns="http://www.w3.org/2000/svg"
 width="500.000000pt" height="500.000000pt" viewBox="0 0 500.000000 500.000000"
 preserveAspectRatio="xMidYMid meet">
<metadata>
Created by potrace 1.14, written by Peter Selinger 2001-2017
</metadata>
<g transform="translate(0.000000,500.000000) scale(0.100000,-0.100000)"
fill="#000000" stroke="none">
<path d="M0 2500 l0 -2500 2500 0 2500 0 0 2500 0 2500 -2500 0 -2500 0 0
-2500z m2497 1862 c63 -33 106 -74 139 -134 l29 -53 3 -682 3 -681 227 -4 228
-3 66 -33 c72 -35 124 -88 155 -158 17 -36 18 -103 23 -879 5 -801 6 -842 24
-878 37 -75 134 -114 260 -104 79 6 138 26 174 60 37 35 62 92 62 143 0 27
-46 230 -106 468 -58 232 -113 453 -121 491 -13 56 -17 171 -22 585 l-6 514
-39 8 c-114 24 -247 131 -302 245 -25 51 -29 70 -32 180 l-4 123 96 0 96 0 0
179 0 180 26 20 c30 24 43 26 77 10 41 -18 47 -49 47 -224 l0 -165 125 0 125
0 0 169 c0 93 3 177 6 186 9 23 61 47 87 39 55 -16 57 -23 57 -216 l0 -178
101 0 101 0 -3 -122 c-4 -112 -7 -128 -33 -183 -54 -111 -176 -207 -303 -239
l-48 -12 -3 -435 c-2 -344 1 -455 13 -535 8 -55 67 -310 130 -565 107 -428
116 -470 112 -540 -9 -177 -133 -319 -313 -359 -67 -15 -229 -13 -292 4 -110
30 -197 102 -246 205 l-31 66 -5 835 c-5 899 -3 864 -58 905 -25 18 -45 20
-239 23 l-213 3 -2 -1018 -3 -1018 -782 -3 -783 -2 0 1779 c0 1947 -4 1816 57
1904 30 43 94 91 151 112 30 11 139 14 592 12 l555 -2 42 -23z"/>
<path d="M1348 4184 c-58 -31 -58 -33 -58 -506 0 -412 1 -435 20 -465 12 -21
32 -36 57 -43 26 -8 194 -10 540 -8 l503 3 32 33 33 32 3 428 c3 471 2 490
-51 522 -31 19 -54 20 -542 20 -432 -1 -514 -3 -537 -16z"/>
<path d="M1906 2728 c-38 -61 -508 -851 -512 -863 -5 -12 21 -15 169 -17 l175
-3 -114 -275 c-63 -151 -121 -293 -129 -315 -13 -35 7 -17 152 132 93 95 287
294 432 443 l263 270 -181 0 c-112 0 -181 4 -181 10 0 5 83 152 184 325 l185
315 -214 0 c-212 0 -215 0 -229 -22z"/>
</g>
</svg>
